<svg xmlns="http://www.w3.org/2000/svg" viewBox="0 0 480 360" role="img" aria-labelledby="title desc">
  <title id="title">舅舅的奇妙冒险封面</title>
  <desc id="desc">锅铲舅和保温杯舅在客厅擂台摆出格斗姿势</desc>
  <rect width="480" height="360" fill="#dfcc91"/>
  <path d="M0 0h480v230H0z" fill="#e6d79e"/>
  <path d="M0 230h480v130H0z" fill="#9e7950"/>
  <path d="M0 230h480" stroke="#5d4935" stroke-width="14"/>
  <path d="M55 42h120v76H55z" fill="#b9d3ca" stroke="#704b2c" stroke-width="10"/>
  <path d="M315 42h110v76H315z" fill="#d0d6a3" stroke="#704b2c" stroke-width="10"/>
  <rect x="164" y="18" width="154" height="58" rx="4" fill="#b8342f" stroke="#f5cf60" stroke-width="7"/>
  <text x="241" y="57" text-anchor="middle" fill="#fff0ad" font-family="sans-serif" font-size="30" font-weight="900">舅 舅 杯</text>
  <ellipse cx="240" cy="330" rx="190" ry="24" fill="#473c2f" opacity=".3"/>
  <g transform="translate(58 105)">
    <path d="M52 107l-15 113M100 108l14 112" stroke="#5d382f" stroke-width="28" stroke-linecap="round"/>
    <path d="M31 220h45M92 220h46" stroke="#283239" stroke-width="15" stroke-linecap="round"/>
    <path d="M27 74q51-24 94 2l-3 87q-48 20-93-2z" fill="#d84d3f" stroke="#63382e" stroke-width="7"/>
    <path d="M46 77l27 39 29-40" fill="#ffe0a6"/>
    <ellipse cx="73" cy="48" rx="42" ry="47" fill="#efb98f" stroke="#60372f" stroke-width="7"/>
    <path d="M32 46Q29 7 69 2q45-4 50 39-23-19-45-13-24-8-42 18" fill="#60372f"/>
    <path d="M48 50q8-7 15 0m24 0q8-7 15 0M57 69q17 14 34 0" fill="none" stroke="#60372f" stroke-width="6" stroke-linecap="round"/>
    <path d="M105 91q45 15 59 65" fill="none" stroke="#efb98f" stroke-width="23" stroke-linecap="round"/>
    <circle cx="169" cy="164" r="36" fill="#263139" stroke="#bdc8c7" stroke-width="7"/>
    <path d="M170 199l25 27" stroke="#263139" stroke-width="8"/>
  </g>
  <g transform="translate(278 104)">
    <path d="M47 109l-12 112M93 109l16 112" stroke="#28434a" stroke-width="28" stroke-linecap="round"/>
    <path d="M27 221h45M88 221h47" stroke="#273139" stroke-width="15" stroke-linecap="round"/>
    <path d="M23 76q48-25 92 1l3 87q-47 19-95-1z" fill="#287c8e" stroke="#27434a" stroke-width="7"/>
    <path d="M43 78l28 39 26-40" fill="#d8f2e5"/>
    <ellipse cx="70" cy="49" rx="41" ry="47" fill="#dca37e" stroke="#27434a" stroke-width="7"/>
    <path d="M29 45Q27 8 66 2q44-3 49 39-22-18-43-12-24-8-43 16" fill="#27434a"/>
    <path d="M31 38q-8 17 1 31m80-31q8 17-1 31" fill="none" stroke="#f0eee0" stroke-width="8"/>
    <path d="M46 50q8-7 15 0m22 0q8-7 15 0M55 70q16 13 31 0" fill="none" stroke="#27434a" stroke-width="6" stroke-linecap="round"/>
    <path d="M31 96q-40 15-51 57" fill="none" stroke="#dca37e" stroke-width="23" stroke-linecap="round"/>
    <rect x="-35" y="142" width="30" height="61" rx="8" fill="#d94f3d" stroke="#ffe9ba" stroke-width="5"/>
  </g>
  <path d="M220 144l20-23 20 23-20 23z" fill="#f4c34f" stroke="#573d2e" stroke-width="5"/>
  <text x="240" y="154" text-anchor="middle" fill="#573d2e" font-family="sans-serif" font-size="25" font-weight="900">VS</text>
</svg>
